<?xml version="1.0" encoding="utf-8"?>
<!-- Generator: Adobe Illustrator 16.0.0, SVG Export Plug-In . SVG Version: 6.00 Build 0)  -->
<!DOCTYPE svg PUBLIC "-//W3C//DTD SVG 1.1//EN" "http://www.w3.org/Graphics/SVG/1.1/DTD/svg11.dtd">
<svg version="1.1" id="Layer_1" xmlns="http://www.w3.org/2000/svg" xmlns:xlink="http://www.w3.org/1999/xlink" x="0px" y="0px"
	 width="1600px" height="148px" viewBox="0 0 1600 148" enable-background="new 0 0 1600 148" xml:space="preserve">
<g>
	<defs>
		<rect id="SVGID_1_" x="0" width="1600" height="148"/>
	</defs>
	<clipPath id="SVGID_2_">
		<use xlink:href="#SVGID_1_"  overflow="visible"/>
	</clipPath>
	<path opacity="0.5" clip-path="url(#SVGID_2_)" fill="#2F8ECD" d="M820.098,45.189c0,0,105.102,31.177,225.252,18.994
		S1253.5,35,1297,32s82.033-0.777,88.517,0.361C1367.5,32.5,1327.5,30.5,1260.5,46.5c-31,7-79.082,16.698-126.791,23.599
		c-15.209,2.401-104.9,11.311-152.305,7.856S866.695,62.879,820.098,45.189z"/>
	<path opacity="0.5" clip-path="url(#SVGID_2_)" fill="#2F8ECD" d="M5,45.5c0,0,68.5,17.683,164,3.591C247.5,37.5,317,24.5,388.5,16
		c38-3,77.887-5.693,114.443-1.597C490.5,14,438,13.5,386.5,21.5S257.55,42.183,216.025,49.091S76,69,5,45.5z"/>
	<path clip-path="url(#SVGID_2_)" fill="#2F8ECD" d="M1370,90.228C1320,97.455,1151,120,1054,119
		c-92.732-0.956-202.822-32.984-249.898-47.78c-5.309-1.321-10.714-2.655-16.225-3.993C635.932,37.728,434.949,63.197,388,72
		C116,129-3.667,93.167-3.667,93.167l1.837-33.599c-0.313-0.187-0.478-0.292-0.478-0.292L-8.167,148H1601V81.494
		C1559.445,66.712,1419.314,83.1,1370,90.228z"/>
	<path opacity="0.8" clip-path="url(#SVGID_2_)" fill="#2F8ECD" d="M-2.307,56.276L-2.75,93.625C-2.75,93.625,116,130,388,73
		c48-9,257.006-35.422,410.003-2.711C841,84,957,119,1054,120s266-21.545,316-28.772s193.367-23.976,232.684-8.102
		c0-17.126,0-42.86,0-42.86s-128.907-18.344-237.914,5.556C1218,78,1071.625,91.943,974.812,87.472s-113.691-8.234-166.252-20.353
		C754,53,637,9,472,25C366,35,186.833,61.667,134.921,65.83C115.895,67.406,25.386,70.553-2.307,56.276z"/>
</g>
<path opacity="0.5" fill="#FFFFFF" d="M199.088,125.018c0,0,50.864,0.938,110.388-12.373S471,77,530.5,72.5
	s128.997-2.59,171.999,5.455S772,92.174,796.5,99.837C777,96.5,724,81.834,655.5,81.667S501.5,92,454,100
	S297.176,132.035,199.088,125.018z"/>
</svg>
