<?xml version="1.0" encoding="utf-8"?>
<!-- Generator: Adobe Illustrator 16.0.0, SVG Export Plug-In . SVG Version: 6.00 Build 0)  -->
<!DOCTYPE svg PUBLIC "-//W3C//DTD SVG 1.1//EN" "http://www.w3.org/Graphics/SVG/1.1/DTD/svg11.dtd">
<svg version="1.1" id="Layer_1" xmlns="http://www.w3.org/2000/svg" xmlns:xlink="http://www.w3.org/1999/xlink" x="0px" y="0px"
	 width="109.173px" height="110px" viewBox="0 0 109.173 110" enable-background="new 0 0 109.173 110" xml:space="preserve">
<path fill-rule="evenodd" clip-rule="evenodd" fill="#287C90" d="M12.456,5.682c0,0-1.136-1.053-2.446-2.248
	C9.682,3.133,9.342,2.823,9.006,2.52C7.584,1.229,6.268,0,6.268,0L0,5.682H12.456z"/>
<path fill-rule="evenodd" clip-rule="evenodd" fill="#287C90" d="M103.236,110c0,0,1.1-1.103,2.35-2.372
	c0.313-0.318,0.638-0.648,0.954-0.973c1.348-1.38,2.633-2.658,2.633-2.658l-5.937-6.079V110z"/>
<path fill-rule="evenodd" clip-rule="evenodd" fill="#57BF90" d="M6.173,0c0,0,2.739,2.242,7.061,6.615
	c13.345,13.507,43.386,43.972,66.391,67.307c16.833,17.073,29.549,30.063,29.549,30.063V69.737L40.142,0H6.173z"/>
</svg>
